<svg width="117" height="117" viewBox="0 0 117 117" fill="none" xmlns="http://www.w3.org/2000/svg">
<rect x="10" y="10" width="97" height="97" rx="5" fill="#14365A" fill-opacity="0.16"/>
<path d="M43.8 42H74.2C75.2078 42 76.1744 42.398 76.887 43.1065C77.5996 43.815 78 44.7758 78 45.7778V57.1111C78 62.1208 75.9982 66.9252 72.435 70.4676C68.8718 74.0099 64.0391 76 59 76C56.5049 76 54.0342 75.5114 51.729 74.5622C49.4238 73.6129 47.3293 72.2216 45.565 70.4676C42.0018 66.9252 40 62.1208 40 57.1111V45.7778C40 44.7758 40.4004 43.815 41.113 43.1065C41.8256 42.398 42.7922 42 43.8 42V42Z" stroke="#14365A" stroke-width="2" stroke-linecap="round" stroke-linejoin="round"/>
<path d="M51.4 55.2222L59 62.7777L66.6 55.2222" stroke="#14365A" stroke-width="2" stroke-linecap="round" stroke-linejoin="round"/>
</svg>
