<svg width="117" height="117" viewBox="0 0 117 117" fill="none" xmlns="http://www.w3.org/2000/svg">
<rect x="10" y="10" width="97" height="97" rx="5" fill="#FDB33F" fill-opacity="0.15"/>
<path d="M67.5 54.0016L50.5 44.179" stroke="#FDB33F" stroke-width="2" stroke-linecap="round" stroke-linejoin="round"/>
<path d="M76 66.4927V51.3518C75.9993 50.688 75.8244 50.0361 75.4929 49.4614C75.1614 48.8867 74.6848 48.4095 74.1111 48.0776L60.8889 40.5071C60.3146 40.1749 59.6631 40 59 40C58.3369 40 57.6854 40.1749 57.1111 40.5071L43.8889 48.0776C43.3152 48.4095 42.8386 48.8867 42.5071 49.4614C42.1756 50.0361 42.0007 50.688 42 51.3518V66.4927C42.0007 67.1565 42.1756 67.8084 42.5071 68.3831C42.8386 68.9578 43.3152 69.435 43.8889 69.7669L57.1111 77.3374C57.6854 77.6696 58.3369 77.8445 59 77.8445C59.6631 77.8445 60.3146 77.6696 60.8889 77.3374L74.1111 69.7669C74.6848 69.435 75.1614 68.9578 75.4929 68.3831C75.8244 67.8084 75.9993 67.1565 76 66.4927Z" stroke="#FDB33F" stroke-width="2" stroke-linecap="round" stroke-linejoin="round"/>
<path d="M42.51 49.3835L59 58.9412L75.49 49.3835" stroke="#FDB33F" stroke-width="2" stroke-linecap="round" stroke-linejoin="round"/>
<path d="M59 77.9999V58.9224" stroke="#FDB33F" stroke-width="2" stroke-linecap="round" stroke-linejoin="round"/>
</svg>
