<svg width="117" height="117" viewBox="0 0 117 117" fill="none" xmlns="http://www.w3.org/2000/svg">
<rect x="10" y="10" width="97" height="97" rx="5" fill="#CE4BE3" fill-opacity="0.15"/>
<path d="M65.5455 44H41V64.9444H65.5455V44Z" stroke="#CE4BE3" stroke-width="2" stroke-linecap="round" stroke-linejoin="round"/>
<path d="M65.5454 52.0557H72.0909L77 56.889V64.9446H65.5454V52.0557Z" stroke="#CE4BE3" stroke-width="2" stroke-linecap="round" stroke-linejoin="round"/>
<path d="M48.3636 72.9999C50.623 72.9999 52.4545 71.1966 52.4545 68.9721C52.4545 66.7476 50.623 64.9443 48.3636 64.9443C46.1043 64.9443 44.2727 66.7476 44.2727 68.9721C44.2727 71.1966 46.1043 72.9999 48.3636 72.9999Z" stroke="#CE4BE3" stroke-width="2" stroke-linecap="round" stroke-linejoin="round"/>
<path d="M69.6363 72.9999C71.8957 72.9999 73.7272 71.1966 73.7272 68.9721C73.7272 66.7476 71.8957 64.9443 69.6363 64.9443C67.377 64.9443 65.5454 66.7476 65.5454 68.9721C65.5454 71.1966 67.377 72.9999 69.6363 72.9999Z" stroke="#CE4BE3" stroke-width="2" stroke-linecap="round" stroke-linejoin="round"/>
</svg>
