<svg width="67" height="67" viewBox="0 0 67 67" fill="none" xmlns="http://www.w3.org/2000/svg">
<path d="M5.5 33.5C5.5 18.036 18.036 5.5 33.5 5.5C48.964 5.5 61.5 18.036 61.5 33.5C61.5 48.964 48.964 61.5 33.5 61.5C18.036 61.5 5.5 48.964 5.5 33.5Z" fill="#F4EBFF"/>
<path d="M43.5 27.5C43.5 26.4 42.6 25.5 41.5 25.5H25.5C24.4 25.5 23.5 26.4 23.5 27.5M43.5 27.5V39.5C43.5 40.6 42.6 41.5 41.5 41.5H25.5C24.4 41.5 23.5 40.6 23.5 39.5V27.5M43.5 27.5L33.5 34.5L23.5 27.5" stroke="#FDB33F" stroke-width="2" stroke-linecap="round" stroke-linejoin="round"/>
<path d="M33.5 56.5C20.7975 56.5 10.5 46.2025 10.5 33.5H0.5C0.5 51.7254 15.2746 66.5 33.5 66.5V56.5ZM56.5 33.5C56.5 46.2025 46.2025 56.5 33.5 56.5V66.5C51.7254 66.5 66.5 51.7254 66.5 33.5H56.5ZM33.5 10.5C46.2025 10.5 56.5 20.7975 56.5 33.5H66.5C66.5 15.2746 51.7254 0.5 33.5 0.5V10.5ZM33.5 0.5C15.2746 0.5 0.5 15.2746 0.5 33.5H10.5C10.5 20.7975 20.7975 10.5 33.5 10.5V0.5Z" fill="#F9F5FF"/>
</svg>
