<svg width="33" height="33" viewBox="0 0 33 33" fill="none" xmlns="http://www.w3.org/2000/svg">
<path d="M0.5 16.5C0.5 7.66344 7.66344 0.5 16.5 0.5C25.3366 0.5 32.5 7.66344 32.5 16.5C32.5 25.3366 25.3366 32.5 16.5 32.5C7.66344 32.5 0.5 25.3366 0.5 16.5Z" fill="#FDB33F" fill-opacity="0.15"/>
<path fill-rule="evenodd" clip-rule="evenodd" d="M23.2953 10.3532L13.7487 19.5666L11.2153 16.8599C10.7487 16.4199 10.0153 16.3932 9.482 16.7666C8.962 17.1532 8.81534 17.8332 9.13534 18.3799L12.1353 23.2599C12.4287 23.7132 12.9353 23.9932 13.5087 23.9932C14.0553 23.9932 14.5753 23.7132 14.8687 23.2599C15.3487 22.6332 24.5087 11.7132 24.5087 11.7132C25.7087 10.4866 24.2553 9.40655 23.2953 10.3399V10.3532Z" fill="#FDB33F"/>
</svg>
